# AST/ASF file generated using VICON BodyLanguage
# -----------------------------------------------
:version 1.10
:name VICON
:units
  mass 1.0
  length 0.45
  angle deg
:documentation
   .ast/.asf automatically generated from VICON data using
   VICON BodyBuilder and BodyLanguage model FoxedUp or BRILLIANT.MOD
:root
   order TX TY TZ RX RY RZ
   axis XYZ
   position 0 0 0  
   orientation 0 0 0 
:bonedata
  begin
     id 1 
     name lhipjoint
     direction 0.589753 -0.68606 0.426044 
     length 2.54082 
     axis 0 0 0  XYZ
  end
  begin
     id 2 
     name lfemur
     direction 0.34202 -0.939693 0  
     length 7.04539  
     axis 0 0 20  XYZ
    dof rx ry rz
    limits (-160.0 20.0)
           (-70.0 70.0)
           (-60.0 70.0)
  end
  begin
     id 3 
     name ltibia
     direction 0.34202 -0.939693 0   
     length 7.83772   
     axis 0 0 20   XYZ
    dof rx
    limits (-10.0 170.0)
  end
  begin
     id 4 
     name lfoot
     direction 0.0596604 -0.163915 0.984669   
     length 2.39542   
     axis -90 7.62852e-016 20   XYZ
    dof rx rz
    limits (-45.0 90.0)
           (-70.0 20.0)
  end
  begin
     id 5 
     name ltoes
     direction 1.53514e-011 -4.21954e-011 1   
     length 1.2047   
     axis -90 7.62852e-016 20   XYZ
    dof rx
    limits (-90.0 20.0)
  end
  begin
     id 6 
     name rhipjoint
     direction -0.580585 -0.69168 0.429534   
     length 2.52018  
     axis 0 0 0  XYZ 
  end
  begin
     id 7 
     name rfemur
     direction -0.34202 -0.939693 0   
     length 7.0101   
     axis 0 0 -20   XYZ
    dof rx ry rz
    limits (-160.0 20.0)
           (-70.0 70.0)
           (-70.0 60.0)
  end
  begin
     id 8 
     name rtibia
     direction -0.34202 -0.939693 0   
     length 7.70628   
     axis 0 0 -20   XYZ
    dof rx
    limits (-10.0 170.0)
 end
 begin
     id 9 
     name rfoot
     direction -0.0696237 -0.19129 0.979061   
     length 2.52466  
     axis -90 -7.62852e-016 -20   XYZ
    dof rx rz
    limits (-45.0 90.0)
           (-20.0 70.0)
  end
  begin
     id 10 
     name rtoes
     direction -1.53519e-011 -4.21793e-011 1   
     length 1.266   
     axis -90 -7.62852e-016 -20   XYZ
    dof rx
    limits (-90.0 20.0)
  end
  begin
     id 11 
     name lowerback
     direction 0.00381965 0.995707 -0.0924856   
     length 2.20825   
     axis 0 0 0   XYZ
    dof rx ry rz
    limits (-20.0 45.0)
           (-30.0 30.0)
           (-30.0 30.0)
  end
  begin
     id 12 
     name upperback
     direction -0.0139043 0.999634 -0.0231929   
     length 2.21517   
     axis 0 0 0   XYZ
    dof rx ry rz
    limits (-20.0 45.0)
           (-30.0 30.0)
           (-30.0 30.0)
  end
  begin
     id 13 
     name thorax
     direction -0.0143933 0.999691 0.0202892   
     length 2.22911   
     axis 0 0 0   XYZ
    dof rx ry rz
    limits (-20.0 45.0)
           (-30.0 30.0)
           (-30.0 30.0)
  end
  begin
     id 14 
     name lowerneck
     direction -0.0251153 0.981819 0.188153   
     length 1.61782   
     axis 0 0 0   XYZ
    dof rx ry rz
    limits (-20.0 45.0)
           (-30.0 30.0)
           (-30.0 30.0)
  end
  begin
     id 15 
     name upperneck
     direction 0.0563891 0.969357 -0.239095   
     length 1.64526   
     axis 0 0 0   XYZ
    dof rx ry rz
    limits (-20.0 45.0)
           (-30.0 30.0)
           (-30.0 30.0)
  end
  begin
     id 16
     name head
     direction 0.0208328 0.99459 -0.101773  
     length 1.67436  
     axis 0 0 0   XYZ
    dof rx ry rz
    limits (-20.0 45.0)
           (-30.0 30.0)
           (-30.0 30.0)
  end
  begin
     id 17 
     name lclavicle
     direction 0.917689 0.397224 0.00772059  
     length 3.31102  
     axis 0 0 0   XYZ
    dof ry rz
    limits (-20.0 10.0)
           (0.0 20.0)
  end
  begin
     id 18 
     name lhumerus
     direction 1 -4.4896e-011 2.32308e-027   
     length 5.25537   
     axis 180 -30 -90   XYZ
    dof rx ry rz
    limits (-60.0 90.0)
           (-90.0 90.0)
           (-90.0 90.0)
  end
  begin
     id 19
     name lradius
     direction 1 -4.49005e-011 -2.04271e-027   
     length 3.38855   
     axis 180 -30 -90   XYZ
    dof rx
    limits (-10.0 170.0)
  end
  begin
     id 20
     name lwrist
     direction 1 -4.48892e-011 2.56952e-028   
     length 1.69428   
     axis -5.12785e-016 90 90   XYZ
    dof ry
    limits (-180.0 0.0)
 end
  begin
     id 21 
     name lhand
     direction 1 -4.48966e-011 5.13905e-028   
     length 0.614516   
     axis -3.27915e-016 90 90   XYZ
    dof rx rz
    limits (-90.0 90.0)
           (-45.0 45.0)
  end
  begin
     id 22 
     name lfingers
     direction 1 -4.48979e-011 1.02781e-027   
     length 0.495439   
     axis -6.5583e-016 90 90   XYZ
    dof rx
    limits (0.0 90.0)
  end
  begin
     id 23
     name lthumb
     direction 0.707107 -6.35001e-011 0.707107   
     length 0.711354   
     axis -90 45 2.85299e-015   XYZ
    dof rx rz
    limits (-45.0 45.0)
           (-45.0 45.0)
  end
  begin
     id 24 
     name rclavicle
     direction -0.938556 0.342765 -0.0403177   
     length 3.27019  
     axis 0 0 0   XYZ 
    dof ry rz
    limits (-10.0 20.0)
           (-20.0 0.0)
  end
  begin
     id 25 
     name rhumerus
     direction -1 -4.48966e-011 2.52291e-027  
     length 5.38183   
     axis 180 30 90   XYZ
    dof rx ry rz
    limits (-90.0 60.0)
           (-90.0 90.0)
           (-90.0 90.0)
  end
  begin
     id 26 
     name rradius
     direction -1 -4.4896e-011 1.5797e-027   
     length 3.16988   
     axis 180 30 90   XYZ
    dof rx
    limits (-10.0 170.0)
  end
  begin
     id 27 
     name rwrist
     direction -1 -4.48947e-011 2.56952e-028   
     length 1.58494   
     axis -5.12785e-016 -90 -90   XYZ
    dof ry
    limits (-180.0 0.0)
  end
  begin
     id 28
     name rhand
     direction -1 -4.49098e-011 5.13905e-028   
     length 0.637679   
     axis -3.27915e-016 -90 -90   XYZ
    dof rx rz
    limits (-90.0 90.0)
           (-45.0 45.0)
  end
  begin
     id 29
     name rfingers
     direction -1 -4.49026e-011 1.02781e-027   
     length 0.514113   
     axis -6.5583e-016 -90 -90   XYZ
    dof rx
    limits (0.0 90.0)
  end
  begin
     id 30
     name rthumb
     direction -0.707107 -6.3491e-011 0.707107   
     length 0.738167   
     axis -90 -45 -2.85299e-015   XYZ
    dof rx rz
    limits (-45.0 45.0)
           (-45.0 45.0)
  end
:hierarchy
  begin
    root lhipjoint rhipjoint lowerback
    lhipjoint lfemur
    lfemur ltibia
    ltibia lfoot
    lfoot ltoes
    rhipjoint rfemur
    rfemur rtibia
    rtibia rfoot
    rfoot rtoes
    lowerback upperback
    upperback thorax
    thorax lowerneck lclavicle rclavicle
    lowerneck upperneck
    upperneck head
    lclavicle lhumerus
    lhumerus lradius
    lradius lwrist
    lwrist lhand lthumb
    lhand lfingers
    rclavicle rhumerus
    rhumerus rradius
    rradius rwrist
    rwrist rhand rthumb
    rhand rfingers
  end

#!OML:ASF H:\Swim\Project 1\Capture day 1\Session 1\swimmer.ASF
:FULLY-SPECIFIED
:DEGREES
3760
root 2.05 16.997 -23.738 87.4703 -5.43583 24.821
lowerback 2.4345 -4.6273 -7.23869
upperback -9.6627 -7.46889 -4.24394
thorax -11.4978 -3.25418 0.3156
lowerneck -12.926 -9.28378 -16.1412
upperneck -6.71457 -10.2406 16.2471
head 1.84135 -4.66508 6.95334
rclavicle -6.36111e-015 8.07066e-014
rhumerus -24.3136 32.7441 -53.3885
rradius 122.552
rwrist -218.142
rhand -12.8697 -20.2385
rfingers 7.12502
rthumb 13.2188 -49.7993
lclavicle -6.36111e-015 8.07066e-014
lhumerus -8.10703 -58.2809 46.8739
lradius 126.115
lwrist 17.5436
lhand -36.0605 -3.2
lfingers 7.12502
lthumb -9.1682 26.5807
rfemur -15.971 -18.5665 7.46612
rtibia 42.1895
rfoot 3.57866 -39.0407
rtoes -27.0847
lfemur -23.7792 -17.4113 -23.3079
ltibia 30.2421
lfoot 12.0538 0.00785748
ltoes -4.84038
3761
root 2.07049 17.0047 -23.7469 87.1539 -5.30482 24.8282
lowerback 2.33155 -4.65332 -7.07298
upperback -9.73158 -7.49147 -4.28217
thorax -11.5389 -3.28205 0.181168
lowerneck -13.319 -9.2927 -16.0914
upperneck -6.1146 -10.2489 16.182
head 2.07151 -4.64978 6.89796
rclavicle -1.03368e-013 -7.31528e-014
rhumerus -23.5999 32.9053 -53.4818
rradius 123.059
rwrist -218.652
rhand -12.7929 -20.2547
rfingers 7.12502
rthumb 13.2929 -49.8108
lclavicle -1.03368e-013 -7.31528e-014
lhumerus -7.87139 -58.563 47.2633
lradius 126.714
lwrist 17.4629
lhand -36.7552 -2.77753
lfingers 7.12502
lthumb -9.83848 26.9726
rfemur -15.8584 -19.8997 7.46479
rtibia 42.9547
rfoot 3.45976 -38.2778
rtoes -26.706
lfemur -23.6909 -17.1587 -23.3781
ltibia 30.8916
lfoot 12.5925 0.0202964
ltoes -2.88356
3762
root 2.09037 17.012 -23.7547 86.8554 -5.19523 24.8079
lowerback 2.21719 -4.67158 -6.9433
upperback -9.8081 -7.50459 -4.3096
thorax -11.577 -3.30148 0.0756558
lowerneck -13.7608 -9.30253 -16.0375
upperneck -5.45852 -10.2563 16.08
head 2.32274 -4.63217 6.82873
rclavicle -4.13472e-014 -5.32743e-014
rhumerus -22.8597 33.0506 -53.5153
rradius 123.58
rwrist -218.949
rhand -12.6348 -20.2592
rfingers 7.12502
rthumb 13.4452 -49.8053
lclavicle -4.13472e-014 -5.32743e-014
lhumerus -7.52376 -58.7927 47.4882
lradius 127.335
lwrist 17.4125
lhand -37.4868 -2.26606
lfingers 7.12502
lthumb -10.5443 27.4494
rfemur -15.7669 -21.145 7.43966
rtibia 43.7363
rfoot 3.23031 -37.529
rtoes -26.3389
lfemur -23.6265 -16.8908 -23.4542
ltibia 31.5735
lfoot 13.191 0.0345057
ltoes -0.687018
3763
root 2.11 17.019 -23.7615 86.5657 -5.09115 24.7664
lowerback 2.1004 -4.67515 -6.82633
upperback -9.88695 -7.49802 -4.3351
thorax -11.6154 -3.30986 -0.0233175
lowerneck -14.2216 -9.31738 -15.9666
upperneck -4.76695 -10.2728 15.9476
head 2.58608 -4.61906 6.74598
rclavicle -5.40694e-014 -9.22361e-014
rhumerus -22.1062 33.138 -53.4702
rradius 124.112
rwrist -219.102
rhand -12.3362 -20.2892
rfingers 7.12502
rthumb 13.733 -49.8161
lclavicle -5.40694e-014 -9.22361e-014
lhumerus -6.97041 -58.9837 47.4761
lradius 127.975
lwrist 17.4733
lhand -38.2399 -1.67647
lfingers 7.12502
lthumb -11.2706 28.0007
rfemur -15.6799 -22.2994 7.40568
rtibia 44.5286
rfoot 2.88263 -36.8148
rtoes -26.0024
lfemur -23.5795 -16.6057 -23.525
ltibia 32.2893
lfoot 13.7875 0.0244699
ltoes 1.34416
3764
root 2.12895 17.026 -23.7679 86.2769 -5.0038 24.6978
lowerback 1.99179 -4.66354 -6.73324
upperback -9.96649 -7.47352 -4.36408
thorax -11.6582 -3.30708 -0.11448
lowerneck -14.6847 -9.33597 -15.8858
upperneck -4.06152 -10.2965 15.8027
head 2.85428 -4.60999 6.65773
rclavicle 7.95139e-014 6.12257e-014
rhumerus -21.3376 33.1664 -53.3555
rradius 124.648
rwrist -219.18
rhand -11.9404 -20.3327
rfingers 7.12502
rthumb 14.1145 -49.8334
lclavicle 7.95139e-014 6.12257e-014
lhumerus -6.21789 -59.1382 47.238
lradius 128.634
lwrist 17.6865
lhand -38.9835 -1.03586
lfingers 7.12502
lthumb -11.9877 28.6009
rfemur -15.5889 -23.3619 7.35079
rtibia 45.3317
rfoot 2.44866 -36.1326
rtoes -25.6552
lfemur -23.5425 -16.303 -23.6013
ltibia 33.0375
lfoot 14.3577 -0.00871908
ltoes 3.02859
3765
root 2.14755 17.0331 -23.7743 85.964 -4.93554 24.6063
lowerback 1.91121 -4.63721 -6.65585
upperback -10.0372 -7.43336 -4.40667
thorax -11.7087 -3.29542 -0.211325
lowerneck -15.1212 -9.35992 -15.807
upperneck -3.37669 -10.3304 15.682
head 3.11672 -4.60683 6.57848
rclavicle 9.06458e-014 3.49861e-014
rhumerus -20.5588 33.132 -53.2011
rradius 125.167
rwrist -219.257
rhand -11.5271 -20.3536
rfingers 7.12502
rthumb 14.5127 -49.8261
lclavicle 9.06458e-014 3.49861e-014
lhumerus -5.398 -59.3069 46.9558
lradius 129.266
lwrist 17.9802
lhand -39.6875 -0.396212
lfingers 7.12502
lthumb -12.6665 29.1997
rfemur -15.4639 -24.3362 7.25724
rtibia 46.1456
rfoot 1.96247 -35.489
rtoes -25.2906
lfemur -23.4862 -15.9939 -23.6943
ltibia 33.82
lfoot 14.7787 -0.048908
ltoes 3.89272
3766
root 2.1663 17.0406 -23.781 85.6463 -4.87669 24.5217
lowerback 1.85255 -4.60799 -6.61187
upperback -10.107 -7.39183 -4.42872
thorax -11.7645 -3.27834 -0.266498
lowerneck -15.5012 -9.38985 -15.7767
upperneck -2.7472 -10.3696 15.599
head 3.36088 -4.60761 6.52187
rclavicle -4.92986e-014 -3.81667e-014
rhumerus -19.737 33.0505 -52.9564
rradius 125.673
rwrist -219.415
rhand -11.1338 -20.327
rfingers 7.12502
rthumb 14.8916 -49.7718
lclavicle -4.92986e-014 -3.81667e-014
lhumerus -4.51592 -59.4398 46.6871
lradius 129.862
lwrist 18.3764
lhand -40.3229 0.232886
lfingers 7.12502
lthumb -13.279 29.7899
rfemur -15.3242 -25.2557 7.13666
rtibia 46.9748
rfoot 1.50541 -34.8857
rtoes -24.9094
lfemur -23.4362 -15.7075 -23.7918
ltibia 34.6331
lfoot 15.0034 -0.0900485
ltoes 3.78947
3767
root 2.18548 17.0486 -23.7875 85.3256 -4.81515 24.447
lowerback 1.81146 -4.5777 -6.59607
upperback -10.1718 -7.34898 -4.42041
thorax -11.8171 -3.25605 -0.272685
lowerneck -15.8302 -9.42599 -15.805
upperneck -2.17528 -10.4116 15.564
head 3.58773 -4.61054 6.49267
rclavicle -3.18055e-015 -7.95139e-016
rhumerus -18.8479 32.94 -52.6084
rradius 126.139
rwrist -219.708
rhand -10.7727 -20.2782
rfingers 7.12502
rthumb 15.2394 -49.6968
lclavicle -3.18055e-015 -7.95139e-016
lhumerus -3.57404 -59.5102 46.4337
lradius 130.429
lwrist 18.859
lhand -40.8825 0.829294
lfingers 7.12502
lthumb -13.8184 30.3503
rfemur -15.1726 -26.1282 7.00224
rtibia 47.8224
rfoot 1.0831 -34.3217
rtoes -24.5159
lfemur -23.393 -15.4404 -23.8834
ltibia 35.4742
lfoot 15.2184 -0.143213
ltoes 3.73453
3768
root 2.20503 17.0571 -23.7932 85.0025 -4.74345 24.3843
lowerback 1.78063 -4.54779 -6.60135
upperback -10.2278 -7.30508 -4.38257
thorax -11.8585 -3.22972 -0.235244
lowerneck -16.1442 -9.44725 -15.8482
upperneck -1.6331 -10.429 15.5119
head 3.79958 -4.60271 6.46493
rclavicle -2.70347e-014 -2.38542e-014
rhumerus -17.8948 32.7934 -52.1782
rradius 126.558
rwrist -220.16
rhand -10.4108 -20.2158
rfingers 7.12502
rthumb 15.588 -49.6076
lclavicle -2.70347e-014 -2.38542e-014
lhumerus -2.51162 -59.4692 46.1134
lradius 130.979
lwrist 19.4399
lhand -41.356 1.41193
lfingers 7.12502
lthumb -14.2747 30.9013
rfemur -15.0133 -26.9626 6.86417
rtibia 48.6919
rfoot 0.703081 -33.7955
rtoes -24.094
lfemur -23.3531 -15.1899 -23.9627
ltibia 36.3394
lfoot 15.3698 -0.201113
ltoes 3.54973
3769
root 2.22501 17.0665 -23.7985 84.6747 -4.66045 24.3358
lowerback 1.76125 -4.51893 -6.62008
upperback -10.2727 -7.26114 -4.32198
thorax -11.889 -3.20098 -0.165356
lowerneck -16.4901 -9.44187 -15.8701
upperneck -1.07458 -10.4066 15.4036
head 4.0104 -4.57618 6.42051
rclavicle 3.02153e-014 4.85035e-014
rhumerus -16.8844 32.6125 -51.6895
rradius 126.918
rwrist -220.775
rhand -10.0292 -20.1731
rfingers 7.12502
rthumb 15.9555 -49.5359
lclavicle 3.02153e-014 4.85035e-014
lhumerus -1.37418 -59.3295 45.7722
lradius 131.497
lwrist 20.0426
lhand -41.7664 1.98041
lfingers 7.12502
lthumb -14.6701 31.4414
rfemur -14.8423 -27.7594 6.72294
rtibia 49.5846
rfoot 0.366549 -33.32
rtoes -23.6595
lfemur -23.3128 -14.9555 -24.0304
ltibia 37.2266
lfoot 15.4776 -0.245104
ltoes 3.40781
3770
root 2.24496 17.0767 -23.8032 84.3327 -4.57317 24.2887
lowerback 1.76002 -4.48805 -6.6467
upperback -10.3043 -7.21496 -4.25597
thorax -11.9134 -3.17012 -0.0843946
lowerneck -16.9024 -9.40615 -15.8415
upperneck -0.45828 -10.3415 15.2178
head 4.23479 -4.52914 6.34698
rclavicle -1.27222e-014 -1.90833e-014
rhumerus -15.8321 32.3904 -51.1818
rradius 127.215
rwrist -221.534
rhand -9.60209 -20.1534
rfingers 7.12502
rthumb 16.3668 -49.4828
lclavicle -1.27222e-014 -1.90833e-014
lhumerus -0.206629 -59.1265 45.4367
lradius 131.968
lwrist 20.6098
lhand -42.1482 2.52618
lfingers 7.12502
lthumb -15.0379 31.9601
rfemur -14.6518 -28.5182 6.56876
rtibia 50.5038
rfoot 0.0163331 -32.8844
rtoes -23.1945
lfemur -23.2562 -14.7205 -24.0941
ltibia 38.1324
lfoot 15.5318 -0.257589
ltoes 3.39442
3771
root 2.26485 17.0878 -23.8074 83.9533 -4.4901 24.2354
lowerback 1.78615 -4.45341 -6.66289
upperback -10.3114 -7.16561 -4.21206
thorax -11.9306 -3.14024 -0.0314283
lowerneck -17.4057 -9.34815 -15.7417
upperneck 0.240485 -10.2483 14.9696
head 4.48712 -4.46747 6.24356
rclavicle -5.88403e-014 -3.02153e-014
rhumerus -14.7669 32.1149 -50.7205
rradius 127.451
rwrist -222.391
rhand -9.12239 -20.1706
rfingers 7.12502
rthumb 16.8286 -49.4613
lclavicle -5.88403e-014 -3.02153e-014
lhumerus 1.04915 -58.8552 45.0094
lradius 132.394
lwrist 21.1685
lhand -42.5414 3.04625
lfingers 7.12502
lthumb -15.4166 32.4514
rfemur -14.4142 -29.2257 6.37903
rtibia 51.4506
rfoot -0.353882 -32.4909
rtoes -22.693
lfemur -23.1528 -14.4692 -24.1704
ltibia 39.0556
lfoot 15.4407 -0.236841
ltoes 3.11151
3772
root 2.28432 17.0996 -23.8109 83.557 -4.41881 24.1774
lowerback 1.82246 -4.41808 -6.67117
upperback -10.3007 -7.11699 -4.19547
thorax -11.9382 -3.11354 -0.0116353
lowerneck -17.9747 -9.2865 -15.597
upperneck 1.00392 -10.1537 14.7081
head 4.76776 -4.40358 6.12807
rclavicle -8.90555e-014 -1.74931e-014
rhumerus -13.6895 31.7855 -50.3152
rradius 127.63
rwrist -223.311
rhand -8.55369 -20.2256
rfingers 7.12502
rthumb 17.376 -49.4689
lclavicle -8.90555e-014 -1.74931e-014
lhumerus 2.40336 -58.4696 44.4721
lradius 132.782
lwrist 21.6718
lhand -42.9123 3.70812
lfingers 7.12502
lthumb -15.7739 33.0854
rfemur -14.1565 -29.8863 6.15792
rtibia 52.4283
rfoot -0.754917 -32.1401
rtoes -22.1366
lfemur -23.024 -14.1997 -24.2588
ltibia 39.9931
lfoot 15.3404 -0.191036
ltoes 3.14571
3773
root 2.30363 17.1119 -23.8136 83.12 -4.35451 24.1112
lowerback 1.88605 -4.38258 -6.64543
upperback -10.2664 -7.07082 -4.22032
thorax -11.9448 -3.094 -0.0527769
lowerneck -18.5833 -9.22821 -15.4265
upperneck 1.81226 -10.0709 14.4873
head 5.07416 -4.34234 6.02055
rclavicle -1.59028e-015 2.14687e-014
rhumerus -12.6084 31.3999 -50.001
rradius 127.757
rwrist -224.238
rhand -7.91281 -20.3104
rfingers 7.12502
rthumb 17.9927 -49.4981
lclavicle -1.59028e-015 2.14687e-014
lhumerus 3.77683 -58.01 43.8814
lradius 133.13
lwrist 22.0987
lhand -43.2901 4.49108
lfingers 7.12502
lthumb -16.1377 33.8392
rfemur -13.848 -30.5106 5.88951
rtibia 53.4365
rfoot -1.15588 -31.8145
rtoes -21.5225
lfemur -22.8397 -13.9045 -24.3622
ltibia 40.9446
lfoot 15.1284 -0.131992
ltoes 2.93436
3774
root 2.32299 17.1247 -23.8156 82.6442 -4.30469 24.05
lowerback 1.98693 -4.34935 -6.61802
upperback -10.2173 -7.03262 -4.26497
thorax -11.9598 -3.07935 -0.11258
lowerneck -19.1426 -9.19016 -15.2764
upperneck 2.59564 -10.0241 14.338
head 5.379 -4.29764 5.93766
rclavicle 5.24792e-014 7.95139e-016
rhumerus -11.5129 30.963 -49.7364
rradius 127.851
rwrist -225.147
rhand -7.23655 -20.3469
rfingers 7.12502
rthumb 18.6433 -49.4735
lclavicle 5.24792e-014 7.95139e-016
lhumerus 5.14181 -57.4523 43.2925
lradius 133.446
lwrist 22.4646
lhand -43.6679 5.47779
lfingers 7.12502
lthumb -16.5015 34.7961
rfemur -13.4889 -31.1084 5.55887
rtibia 54.4764
rfoot -1.52845 -31.4952
rtoes -20.8518
lfemur -22.604 -13.6011 -24.4887
ltibia 41.9106
lfoot 14.5162 -0.0447546
ltoes 1.07966
